<mxfile host="app.diagrams.net" modified="2024-04-24T03:46:22.456Z" agent="Mozilla/5.0 (Windows NT 10.0; Win64; x64) AppleWebKit/537.36 (KHTML, like Gecko) Chrome/124.0.0.0 Safari/537.36 Edg/124.0.0.0" version="24.2.8" etag="rGMAbkIyHTiVJ-0LOZ0Q" type="github">
  <diagram name="Halaman-1" id="WPugY4L0h5UpzZRSQg6k">
    <mxGraphModel>
      <root>
        <mxCell id="0" />
        <mxCell id="1" parent="0" />
      </root>
    </mxGraphModel>
  </diagram>
</mxfile>
